
<svg viewBox="0 0 128 31" fill="none" xmlns="http://www.w3.org/2000/svg">
  <path d="M19.9987 6.0013C19.9987 8.76159 17.7603 11.0013 14.9987 11.0013C12.2371 11.0013 9.9987 8.76159 9.9987 6.0013C9.9987 3.24101 12.2371 1.0013 14.9987 1.0013C17.7603 1.0013 19.9987 3.24101 19.9987 6.0013Z" fill="#FCCD48"/>
  <path d="M29.9987 24.0013C29.9987 26.7617 27.7603 29.0013 24.9987 29.0013C22.2371 29.0013 19.9987 26.7617 19.9987 24.0013C19.9987 21.241 22.2371 19.0013 24.9987 19.0013C27.7603 19.0013 29.9987 21.241 29.9987 24.0013Z" fill="#FF9500"/>
  <path d="M10.0013 24.0013C10.0013 26.7617 7.76283 29.0013 5.0013 29.0013C2.23977 29.0013 0.00129986 26.7617 0.00129986 24.0013C0.00129986 21.241 2.23977 19.0013 5.0013 19.0013C7.76283 19.0013 10.0013 21.241 10.0013 24.0013Z" fill="#FA494C"/>
  <path d="M53.5363 14.9325V23.0358H51.3311V8H53.5003L59.3535 15.6952V8H61.5586V23.0358H59.5461L53.5363 14.9325Z" fill="black"/>
  <path d="M64.2986 8H66.4677V15.3821C66.4677 19.1753 68.1063 21.048 70.8167 21.048C73.5272 21.048 75.1658 19.1753 75.1658 15.3821V8H77.3709V15.3821C77.3709 20.3214 74.5686 23 70.8167 23C67.0648 23 64.2986 20.3214 64.2986 15.3821V8Z" fill="black"/>
  <path d="M79.9201 8H82.0892V21.0119H90.0715V23.0358H79.9201V8Z" fill="black"/>
  <path d="M90.0715 8H101.096V9.98789H95.8881V23H93.2796V9.98789H90.0715V8Z" fill="black"/>
  <path d="M104.193 23V8H113.697V9.98789H106.398V14.4682H112.87V16.4561H106.398V21.0119H114V23H104.193Z" fill="black"/>
</svg>
