
<svg fill="none" height="30" viewBox="0 0 125 30" width="125" xmlns="http://www.w3.org/2000/svg">
  <path d="m23.1621 2.38068-15.49068 1.13952c-1.088.08996-1.28187.53977-1.28187 1.07953v21.01697c0 .5938.38628.9596.96571.9596h1.60234c.57942 0 .96571-.3658.96571-.9596v-19.78792h.12876s.57943 1.07953 1.28186 1.07953l13.76507-.09995v17.72864c0 .8037-.4492 1.1694-.4492 1.1694s-2.1815 1.8052-3.3363 2.6089c-.1288.0899-.3223.2699-.3223.4498 0 .2699.1935.3598.4492.3598l3.7219.0899c.7724 0 1.4106-.5397 1.4106-1.3493v-22.45605c0-1.07952-.5156-1.61929-1.6023-1.7093z" fill="black"/>
  <path clip-rule="evenodd" d="m93.7507 23.8295v-10.256c0-2.5189 1.7379-3.598 3.579-3.598 1.9606 0 3.0004 1.1694 3.0004 3.0583v10.7957h4.2924v-11.4353c0-5.1283-3.0931-7.03765-6.7667-7.03765-1.737 0-3.5471.53978-4.5215 2.24915v-1.88477h-4.1828v18.07857zm-8.2004-15.5638c1.8833 0 3.0932 1.1694 3.0932 3.0583 0 1.889-1.2099 3.0583-3.0932 3.0583h-3.736v9.5176h-4.2923v-15.6342zm-11.066-.0001c2.8835 0 4.0232.8996 4.0232.8996v-3.68813s-4.1367-1.79481-8.4582-1.79481c-4.9686 0-8.9652 2.51884-8.9652 7.65744 0 9.7876 12.2585 6.8582 12.2585 11.5253 0 1.5294-1.5994 1.9791-3.2265 1.9791-2.5612 0-4.7832-.9896-4.7832-.9896v3.6881s4.0694 1.9791 8.0093 1.9791c4.0693 0 9.4975-1.7948 9.4975-7.7474-.0388-10.1573-12.2585-6.5883-12.2585-11.5253 0-1.5294 1.2098-1.9791 3.9031-1.9791zm-22.4641-2.5189v18.0786h4.1828v-10.256c0-2.5189 1.738-3.598 3.5789-3.598 1.9607 0 3.0004 1.1694 3.0004 3.0583v10.7957h4.2924v-11.4353c0-5.1283-3.0932-7.03765-6.7667-7.03765-1.7379 0-3.547.53978-4.5216 2.24915v-1.88477h-3.8662zm-9.1679-9.59715v5.48793c-.6955-.31987-1.4678-.58975-2.6326-.58975-1.9243 0-2.619 1.16938-2.619 2.87836v2.09927h5.2518v3.958h-5.2518v16.1215h-4.2924v-16.1215h-3.0932v-3.958h3.0932v-2.6988c0-4.31864 2.584-6.7782 6.8078-6.7782 1.6379 0 3.3758.31986 3.3758.53978-.0388-.00001-.0388.05997-.0388.05997z" fill="black" fill-rule="evenodd"/>
</svg>
