
<svg xmlns="http://www.w3.org/2000/svg" viewBox="0 0 200 60">
  <path d="M42.1,8.3L29.7,25.2h12.9v7.4H19.5v-6.9L31.9,8.8H19.5V1.4h22.6V8.3z" fill="#FF4A00"/>
  <path d="M70.5,25.7h-7.4v6.9h-8.6V1.4h17.5c6.8,0,11.9,4.6,11.9,12.1C83.9,21.1,77.4,25.7,70.5,25.7z M70.1,8.8h-7v9.5h7 c2.9,0,5-1.9,5-4.7C75.1,10.7,73,8.8,70.1,8.8z" fill="#FF4A00"/>
  <path d="M149.7,32.6h-9l-13.9-31.2h9.6l8.8,20.9l8.8-20.9h9.6L149.7,32.6z" fill="#FF4A00"/>
  <path d="M103.7,1.4h-8.6v31.2h24v-7.4h-15.4V1.4z" fill="#FF4A00"/>
  <path d="M180.2,21.1l-5.2-1.2c-1.8-0.4-2.3-1.1-2.3-1.9c0-1.3,1.2-2.1,3.1-2.1c2.2,0,4.3,0.8,6.5,2.2l3.6-5.5 c-3-2.2-6.6-3.3-10-3.3c-6.9,0-11.5,3.8-11.5,9.3c0,4.4,2.9,7.5,8,8.6l5.1,1.2c2,0.4,2.7,1.1,2.7,2c0,1.5-1.4,2.3-3.8,2.3 c-2.9,0-5.2-1-7.9-3.1l-4.2,5.2c3.4,3,7.4,4.5,11.8,4.5c7.1,0,12.3-3.5,12.3-9.5C188.3,25.4,185.6,22.3,180.2,21.1z" fill="#FF4A00"/>
</svg>
